<?xml version="1.0" standalone="no"?>
<!DOCTYPE svg PUBLIC "-//W3C//DTD SVG 20010904//EN"
 "http://www.w3.org/TR/2001/REC-SVG-20010904/DTD/svg10.dtd">
<svg version="1.0" xmlns="http://www.w3.org/2000/svg"
 width="700.000000pt" height="700.000000pt" viewBox="0 0 700.000000 700.000000"
 preserveAspectRatio="xMidYMid meet">
<metadata>
Created by potrace 1.14, written by Peter Selinger 2001-2017
</metadata>
<g transform="translate(0.000000,700.000000) scale(0.100000,-0.100000)"
fill="#000000" stroke="none">
<path d="M0 3500 l0 -3500 3500 0 3500 0 0 3500 0 3500 -3500 0 -3500 0 0
-3500z m4158 1423 l2 -763 763 -2 762 -3 0 -655 0 -655 -762 -3 -763 -2 -2
-763 -3 -762 -655 0 -655 0 -3 762 -2 763 -763 2 -762 3 0 655 0 655 763 3
762 2 0 758 c0 417 3 762 7 765 3 4 299 6 657 5 l651 -3 3 -762z"/>
</g>
</svg>
